<svg xmlns="http://www.w3.org/2000/svg" width="640" height="420" viewBox="0 0 640 420" role="img" aria-label="Cheie dinamometrica">
  <defs>
    <linearGradient id="bg" x1="0" y1="0" x2="1" y2="1">
      <stop offset="0" stop-color="#ffffff"/>
      <stop offset="0.55" stop-color="#f6f8fb"/>
      <stop offset="1" stop-color="#e3e9f2"/>
    </linearGradient>
    <linearGradient id="steel" x1="0" y1="0" x2="1" y2="1">
      <stop offset="0" stop-color="#ffffff"/>
      <stop offset="0.52" stop-color="#d4dfec"/>
      <stop offset="1" stop-color="#8393a6"/>
    </linearGradient>
    <linearGradient id="blue" x1="0" y1="0" x2="1" y2="1">
      <stop offset="0" stop-color="#1680ff"/>
      <stop offset="1" stop-color="#0057d9"/>
    </linearGradient>
    <filter id="shadow" x="-22%" y="-24%" width="144%" height="158%">
      <feDropShadow dx="0" dy="22" stdDeviation="18" flood-color="#071421" flood-opacity="0.21"/>
    </filter>
  </defs>
  <rect width="640" height="420" fill="url(#bg)"/>
  <ellipse cx="322" cy="348" rx="210" ry="31" fill="#071421" opacity="0.12"/>
  <g filter="url(#shadow)" transform="rotate(-18 320 210)">
    <rect x="150" y="190" width="344" height="42" rx="21" fill="url(#steel)"/>
    <rect x="340" y="184" width="142" height="54" rx="27" fill="url(#blue)"/>
    <rect x="364" y="203" width="86" height="7" rx="4" fill="#ffffff" opacity="0.78"/>
    <circle cx="130" cy="211" r="55" fill="#071421"/>
    <circle cx="130" cy="211" r="36" fill="url(#steel)"/>
    <circle cx="130" cy="211" r="18" fill="#071421"/>
    <path d="M500 178h38c20 0 36 16 36 36s-16 36-36 36h-38" fill="none" stroke="#ff6a00" stroke-width="20" stroke-linecap="round"/>
    <g stroke="#071421" stroke-width="5" opacity="0.42">
      <path d="M214 198v26"/>
      <path d="M244 198v26"/>
      <path d="M274 198v26"/>
      <path d="M304 198v26"/>
    </g>
  </g>
</svg>
