<svg xmlns="http://www.w3.org/2000/svg" width="640" height="420" viewBox="0 0 640 420" role="img" aria-label="Compresor pentru atelier">
  <defs>
    <linearGradient id="bg" x1="0" y1="0" x2="1" y2="1">
      <stop offset="0" stop-color="#ffffff"/>
      <stop offset="0.52" stop-color="#fff5ee"/>
      <stop offset="1" stop-color="#ffe5d3"/>
    </linearGradient>
    <linearGradient id="tank" x1="0" y1="0" x2="1" y2="1">
      <stop offset="0" stop-color="#253a55"/>
      <stop offset="1" stop-color="#071421"/>
    </linearGradient>
    <linearGradient id="orange" x1="0" y1="0" x2="1" y2="1">
      <stop offset="0" stop-color="#ff8a24"/>
      <stop offset="1" stop-color="#ff5b00"/>
    </linearGradient>
    <linearGradient id="metal" x1="0" y1="0" x2="1" y2="1">
      <stop offset="0" stop-color="#f8fbff"/>
      <stop offset="1" stop-color="#b9c7d8"/>
    </linearGradient>
    <filter id="shadow" x="-20%" y="-25%" width="140%" height="160%">
      <feDropShadow dx="0" dy="22" stdDeviation="18" flood-color="#071421" flood-opacity="0.22"/>
    </filter>
  </defs>
  <rect width="640" height="420" fill="url(#bg)"/>
  <ellipse cx="320" cy="352" rx="230" ry="34" fill="#071421" opacity="0.13"/>
  <g filter="url(#shadow)">
    <rect x="118" y="228" width="404" height="94" rx="47" fill="url(#tank)"/>
    <rect x="236" y="144" width="178" height="92" rx="20" fill="url(#metal)"/>
    <rect x="266" y="110" width="118" height="46" rx="23" fill="url(#orange)"/>
    <rect x="252" y="165" width="146" height="12" rx="6" fill="#071421" opacity="0.32"/>
    <rect x="252" y="190" width="146" height="12" rx="6" fill="#071421" opacity="0.22"/>
    <circle cx="458" cy="176" r="29" fill="#ffffff"/>
    <circle cx="458" cy="176" r="21" fill="#071421"/>
    <circle cx="458" cy="176" r="13" fill="#ffffff"/>
    <path d="M454 176l12-11" fill="none" stroke="#ff6a00" stroke-width="5" stroke-linecap="round"/>
    <path d="M414 196c58 8 82 38 83 84" fill="none" stroke="#ff6a00" stroke-width="13" stroke-linecap="round"/>
    <rect x="198" y="248" width="244" height="16" rx="8" fill="#ffffff" opacity="0.12"/>
    <circle cx="207" cy="328" r="28" fill="#0b1420"/>
    <circle cx="207" cy="328" r="11" fill="#7d8da1"/>
    <circle cx="436" cy="328" r="28" fill="#0b1420"/>
    <circle cx="436" cy="328" r="11" fill="#7d8da1"/>
  </g>
  <path d="M132 226h-32M524 226h35" fill="none" stroke="#ff6a00" stroke-width="12" stroke-linecap="round"/>
</svg>
