<svg xmlns="http://www.w3.org/2000/svg" width="640" height="420" viewBox="0 0 640 420" role="img" aria-label="Echipamente service">
  <defs>
    <linearGradient id="bg" x1="0" y1="0" x2="1" y2="1">
      <stop offset="0" stop-color="#ffffff"/>
      <stop offset="0.54" stop-color="#edf4ff"/>
      <stop offset="1" stop-color="#dfe9f8"/>
    </linearGradient>
    <linearGradient id="body" x1="0" y1="0" x2="1" y2="1">
      <stop offset="0" stop-color="#263b55"/>
      <stop offset="1" stop-color="#071421"/>
    </linearGradient>
    <linearGradient id="blue" x1="0" y1="0" x2="1" y2="1">
      <stop offset="0" stop-color="#1680ff"/>
      <stop offset="1" stop-color="#0057d9"/>
    </linearGradient>
    <filter id="shadow" x="-20%" y="-24%" width="140%" height="158%">
      <feDropShadow dx="0" dy="22" stdDeviation="18" flood-color="#071421" flood-opacity="0.22"/>
    </filter>
  </defs>
  <rect width="640" height="420" fill="url(#bg)"/>
  <ellipse cx="320" cy="350" rx="220" ry="32" fill="#071421" opacity="0.12"/>
  <g filter="url(#shadow)">
    <rect x="188" y="86" width="264" height="254" rx="24" fill="url(#body)"/>
    <rect x="214" y="116" width="212" height="96" rx="14" fill="#dbe7f6"/>
    <rect x="236" y="136" width="168" height="18" rx="9" fill="url(#blue)"/>
    <rect x="236" y="168" width="108" height="15" rx="8" fill="#071421" opacity="0.34"/>
    <rect x="214" y="236" width="92" height="62" rx="12" fill="url(#blue)"/>
    <rect x="334" y="236" width="92" height="62" rx="12" fill="#ff6a00"/>
    <path d="M230 318h180" stroke="#ffffff" stroke-width="11" stroke-linecap="round" opacity="0.18"/>
    <circle cx="226" cy="350" r="22" fill="#071421"/>
    <circle cx="226" cy="350" r="9" fill="#7d8da1"/>
    <circle cx="414" cy="350" r="22" fill="#071421"/>
    <circle cx="414" cy="350" r="9" fill="#7d8da1"/>
  </g>
  <g fill="none" stroke-linecap="round" stroke-linejoin="round" stroke-width="12">
    <path d="M486 126h54v76" stroke="#ff6a00"/>
    <path d="M522 202c-34 18-37 58-8 82" stroke="#071421"/>
    <path d="M132 164h38m-19-19v38" stroke="#0057d9"/>
  </g>
</svg>
