<svg xmlns="http://www.w3.org/2000/svg" width="640" height="420" viewBox="0 0 640 420" role="img" aria-label="Cricuri si ridicare">
  <defs>
    <linearGradient id="bg" x1="0" y1="0" x2="1" y2="1">
      <stop offset="0" stop-color="#ffffff"/>
      <stop offset="0.55" stop-color="#f6f8fb"/>
      <stop offset="1" stop-color="#e3e9f2"/>
    </linearGradient>
    <linearGradient id="body" x1="0" y1="0" x2="1" y2="1">
      <stop offset="0" stop-color="#263b55"/>
      <stop offset="1" stop-color="#071421"/>
    </linearGradient>
    <linearGradient id="blue" x1="0" y1="0" x2="1" y2="1">
      <stop offset="0" stop-color="#1680ff"/>
      <stop offset="1" stop-color="#0057d9"/>
    </linearGradient>
    <filter id="shadow" x="-20%" y="-25%" width="140%" height="160%">
      <feDropShadow dx="0" dy="22" stdDeviation="18" flood-color="#071421" flood-opacity="0.22"/>
    </filter>
  </defs>
  <rect width="640" height="420" fill="url(#bg)"/>
  <ellipse cx="320" cy="350" rx="218" ry="32" fill="#071421" opacity="0.12"/>
  <g filter="url(#shadow)">
    <path d="M136 298h366c28 0 51-23 51-51H208c-40 0-72 23-72 51Z" fill="url(#body)"/>
    <path d="M242 242 374 116h90l-90 126" fill="none" stroke="url(#blue)" stroke-width="30" stroke-linecap="round" stroke-linejoin="round"/>
    <rect x="374" y="96" width="122" height="46" rx="18" fill="#ff6a00"/>
    <rect x="186" y="210" width="150" height="34" rx="17" fill="#dbe7f6"/>
    <circle cx="214" cy="310" r="31" fill="#071421"/>
    <circle cx="214" cy="310" r="12" fill="#7d8da1"/>
    <circle cx="476" cy="310" r="31" fill="#071421"/>
    <circle cx="476" cy="310" r="12" fill="#7d8da1"/>
    <path d="M494 116h54" stroke="#071421" stroke-width="16" stroke-linecap="round"/>
  </g>
</svg>
