<svg xmlns="http://www.w3.org/2000/svg" width="640" height="420" viewBox="0 0 640 420" role="img" aria-label="Dulap pentru organizare atelier">
  <defs>
    <linearGradient id="bg" x1="0" y1="0" x2="1" y2="1">
      <stop offset="0" stop-color="#ffffff"/>
      <stop offset="0.52" stop-color="#edf4ff"/>
      <stop offset="1" stop-color="#dfe9f8"/>
    </linearGradient>
    <linearGradient id="body" x1="0" y1="0" x2="1" y2="1">
      <stop offset="0" stop-color="#1f344e"/>
      <stop offset="1" stop-color="#071421"/>
    </linearGradient>
    <linearGradient id="blue" x1="0" y1="0" x2="1" y2="1">
      <stop offset="0" stop-color="#1875ff"/>
      <stop offset="1" stop-color="#0057d9"/>
    </linearGradient>
    <linearGradient id="drawer" x1="0" y1="0" x2="1" y2="0">
      <stop offset="0" stop-color="#ffffff"/>
      <stop offset="1" stop-color="#dbe7f6"/>
    </linearGradient>
    <filter id="shadow" x="-20%" y="-20%" width="140%" height="150%">
      <feDropShadow dx="0" dy="20" stdDeviation="18" flood-color="#071421" flood-opacity="0.22"/>
    </filter>
  </defs>
  <rect width="640" height="420" fill="url(#bg)"/>
  <ellipse cx="320" cy="354" rx="220" ry="32" fill="#071421" opacity="0.12"/>
  <g filter="url(#shadow)">
    <rect x="166" y="112" width="314" height="230" rx="20" fill="url(#body)"/>
    <rect x="192" y="142" width="262" height="40" rx="7" fill="url(#blue)"/>
    <rect x="192" y="196" width="262" height="38" rx="7" fill="url(#drawer)"/>
    <rect x="192" y="248" width="262" height="38" rx="7" fill="url(#drawer)"/>
    <rect x="192" y="300" width="262" height="26" rx="7" fill="#ff6a00"/>
    <rect x="272" y="153" width="100" height="8" rx="4" fill="#ffffff" opacity="0.82"/>
    <rect x="272" y="211" width="100" height="7" rx="4" fill="#071421" opacity="0.38"/>
    <rect x="272" y="263" width="100" height="7" rx="4" fill="#071421" opacity="0.38"/>
    <circle cx="215" cy="354" r="20" fill="#0b1420"/>
    <circle cx="215" cy="354" r="9" fill="#7d8da1"/>
    <circle cx="430" cy="354" r="20" fill="#0b1420"/>
    <circle cx="430" cy="354" r="9" fill="#7d8da1"/>
  </g>
  <g fill="none" stroke-linecap="round" stroke-linejoin="round" stroke-width="12">
    <path d="M216 100h84" stroke="#0057d9"/>
    <path d="M300 100l28-34" stroke="#ff6a00"/>
    <path d="M370 102l42-42" stroke="#1f2328"/>
    <path d="M404 60l20 20" stroke="#1f2328"/>
  </g>
</svg>
