<svg xmlns="http://www.w3.org/2000/svg" width="640" height="420" viewBox="0 0 640 420" role="img" aria-label="Scule pneumatice">
  <defs>
    <linearGradient id="bg" x1="0" y1="0" x2="1" y2="1">
      <stop offset="0" stop-color="#ffffff"/>
      <stop offset="0.55" stop-color="#fff5ee"/>
      <stop offset="1" stop-color="#ffe6d4"/>
    </linearGradient>
    <linearGradient id="body" x1="0" y1="0" x2="1" y2="1">
      <stop offset="0" stop-color="#263b55"/>
      <stop offset="1" stop-color="#071421"/>
    </linearGradient>
    <linearGradient id="orange" x1="0" y1="0" x2="1" y2="1">
      <stop offset="0" stop-color="#ff8a24"/>
      <stop offset="1" stop-color="#ff5b00"/>
    </linearGradient>
    <filter id="shadow" x="-20%" y="-25%" width="140%" height="160%">
      <feDropShadow dx="0" dy="22" stdDeviation="18" flood-color="#071421" flood-opacity="0.22"/>
    </filter>
  </defs>
  <rect width="640" height="420" fill="url(#bg)"/>
  <ellipse cx="320" cy="350" rx="210" ry="31" fill="#071421" opacity="0.13"/>
  <g filter="url(#shadow)">
    <path d="M138 132h324c34 0 62 28 62 62v10H138c-22 0-40-18-40-40v-4c0-15 12-28 28-28Z" fill="url(#body)"/>
    <path d="M260 202h120l-28 150h-88l-28-108c-6-22 7-42 24-42Z" fill="url(#body)"/>
    <path d="M452 132h58c20 0 36 16 36 36v34h-86" fill="none" stroke="url(#orange)" stroke-width="28" stroke-linecap="round" stroke-linejoin="round"/>
    <rect x="150" y="156" width="170" height="24" rx="12" fill="#ffffff" opacity="0.14"/>
    <rect x="272" y="230" width="58" height="86" rx="14" fill="#ffffff" opacity="0.13"/>
    <rect x="188" y="115" width="94" height="34" rx="17" fill="url(#orange)"/>
    <rect x="336" y="116" width="92" height="28" rx="14" fill="#dbe7f6"/>
    <circle cx="196" cy="262" r="34" fill="#ffffff"/>
    <circle cx="196" cy="262" r="23" fill="#071421"/>
    <path d="M184 262h24" stroke="#ff6a00" stroke-width="7" stroke-linecap="round"/>
  </g>
</svg>
