<svg xmlns="http://www.w3.org/2000/svg" width="640" height="420" viewBox="0 0 640 420" role="img" aria-label="Set profesional de scule">
  <defs>
    <linearGradient id="bg" x1="0" y1="0" x2="1" y2="1">
      <stop offset="0" stop-color="#ffffff"/>
      <stop offset="0.54" stop-color="#edf4ff"/>
      <stop offset="1" stop-color="#dfe9f8"/>
    </linearGradient>
    <linearGradient id="case" x1="0" y1="0" x2="1" y2="1">
      <stop offset="0" stop-color="#223a56"/>
      <stop offset="1" stop-color="#071421"/>
    </linearGradient>
    <linearGradient id="blue" x1="0" y1="0" x2="1" y2="1">
      <stop offset="0" stop-color="#1680ff"/>
      <stop offset="1" stop-color="#0057d9"/>
    </linearGradient>
    <linearGradient id="metal" x1="0" y1="0" x2="1" y2="1">
      <stop offset="0" stop-color="#ffffff"/>
      <stop offset="1" stop-color="#b9c7d8"/>
    </linearGradient>
    <filter id="shadow" x="-18%" y="-22%" width="136%" height="152%">
      <feDropShadow dx="0" dy="22" stdDeviation="18" flood-color="#071421" flood-opacity="0.22"/>
    </filter>
  </defs>
  <rect width="640" height="420" fill="url(#bg)"/>
  <ellipse cx="320" cy="354" rx="220" ry="32" fill="#071421" opacity="0.12"/>
  <g filter="url(#shadow)">
    <path d="M112 162h416c18 0 32 14 32 32v116c0 18-14 32-32 32H112c-18 0-32-14-32-32V194c0-18 14-32 32-32Z" fill="url(#case)"/>
    <path d="M122 88h396c16 0 30 13 30 30v88H92v-88c0-17 13-30 30-30Z" fill="#12263e"/>
    <rect x="256" y="112" width="128" height="30" rx="15" fill="#f8fbff" opacity="0.9"/>
    <path d="M118 206h404" stroke="#ffffff" stroke-width="11" opacity="0.12"/>
    <rect x="130" y="218" width="84" height="70" rx="13" fill="url(#blue)"/>
    <rect x="438" y="218" width="72" height="70" rx="13" fill="#ff6a00"/>
    <g fill="url(#metal)">
      <rect x="238" y="224" width="28" height="82" rx="9"/>
      <rect x="282" y="224" width="28" height="82" rx="9"/>
      <rect x="326" y="224" width="28" height="82" rx="9"/>
      <rect x="370" y="224" width="28" height="82" rx="9"/>
    </g>
    <g fill="#dbe7f6">
      <circle cx="168" cy="124" r="14"/>
      <circle cx="214" cy="124" r="14"/>
      <circle cx="426" cy="124" r="14"/>
      <circle cx="472" cy="124" r="14"/>
    </g>
    <path d="M146 272h46M454 272h38" stroke="#ffffff" stroke-width="8" stroke-linecap="round" opacity="0.85"/>
  </g>
</svg>
