<svg xmlns="http://www.w3.org/2000/svg" width="640" height="420" viewBox="0 0 640 420" role="img" aria-label="Tubulare si clichete">
  <defs>
    <linearGradient id="bg" x1="0" y1="0" x2="1" y2="1">
      <stop offset="0" stop-color="#ffffff"/>
      <stop offset="0.55" stop-color="#eef6ff"/>
      <stop offset="1" stop-color="#dfe9f8"/>
    </linearGradient>
    <linearGradient id="blue" x1="0" y1="0" x2="1" y2="1">
      <stop offset="0" stop-color="#1680ff"/>
      <stop offset="1" stop-color="#0057d9"/>
    </linearGradient>
    <linearGradient id="steel" x1="0" y1="0" x2="1" y2="1">
      <stop offset="0" stop-color="#ffffff"/>
      <stop offset="0.48" stop-color="#d7e2f0"/>
      <stop offset="1" stop-color="#7d8da1"/>
    </linearGradient>
    <filter id="shadow" x="-22%" y="-22%" width="144%" height="154%">
      <feDropShadow dx="0" dy="22" stdDeviation="18" flood-color="#071421" flood-opacity="0.2"/>
    </filter>
  </defs>
  <rect width="640" height="420" fill="url(#bg)"/>
  <ellipse cx="326" cy="346" rx="215" ry="31" fill="#071421" opacity="0.12"/>
  <g filter="url(#shadow)">
    <path d="M140 268h320c28 0 52-22 52-50s-24-50-52-50H320" fill="none" stroke="url(#steel)" stroke-width="40" stroke-linecap="round"/>
    <path d="M148 268h284" fill="none" stroke="url(#blue)" stroke-width="18" stroke-linecap="round"/>
    <circle cx="474" cy="218" r="64" fill="#12263e"/>
    <circle cx="474" cy="218" r="39" fill="url(#steel)"/>
    <circle cx="474" cy="218" r="18" fill="#071421"/>
    <rect x="128" y="242" width="98" height="52" rx="18" fill="#071421"/>
    <rect x="152" y="255" width="50" height="26" rx="9" fill="#ff6a00"/>
    <g fill="url(#steel)">
      <rect x="168" y="120" width="46" height="92" rx="14"/>
      <rect x="236" y="104" width="48" height="108" rx="14"/>
      <rect x="306" y="124" width="44" height="88" rx="14"/>
    </g>
    <g fill="#071421" opacity="0.28">
      <rect x="178" y="140" width="26" height="8" rx="4"/>
      <rect x="246" y="126" width="28" height="8" rx="4"/>
      <rect x="315" y="145" width="26" height="8" rx="4"/>
    </g>
  </g>
</svg>
