<?xml version="1.0" encoding="UTF-8"?>
<svg width="259px" height="175px" viewBox="0 0 259 175" version="1.1" xmlns="http://www.w3.org/2000/svg" xmlns:xlink="http://www.w3.org/1999/xlink">
    <title>logo_telwin@1x</title>
    <defs>
        <polygon id="path-1" points="0 175 259 175 259 0 0 0"/>
    </defs>
    <g id="logo_telwin" stroke="none" stroke-width="1" fill="none" fill-rule="evenodd">
        <g id="Group-33">
            <polygon id="Fill-1" fill="#E20714" points="0 175 259 175 259 0 0 0"/>
            <polygon id="Fill-2" fill="#FEFEFE" points="6 60 6 60 45 60 45 73.810571 33.6420967 73.810571 33.6420967 122 17.207371 122 17.207371 73.810571 6 73.810571"/>
            <polygon id="Fill-3" fill="#FEFEFE" points="51 122 51 60 81.6978126 60 81.6978126 73.7777778 67.7873673 73.7777778 67.7873673 82.4649319 82 82.4649319 82 96.0942737 67.7873673 96.0942737 67.7873673 105.08195 82 105.08195 82 122"/>
            <polygon id="Fill-4" fill="#FEFEFE" points="89 122 89 122 89 60 104.645723 60 104.645723 105.529691 120 105.529691 120 122"/>
            <polygon id="Fill-5" fill="#FEFEFE" points="160.019568 82.6781891 160.019568 82.6781891 169.61464 36 187 36 170.062792 122 152.972141 122 146.829541 87.1788342 141.881606 122 124.795826 122 114 60.0164471 130.038469 60.0164471 134.233802 88.9810433 139.486187 60.0164471 154.323902 60.0164471"/>
            <polygon id="Fill-6" fill="#FEFEFE" points="186 122 186 122 186 60 204 60 204 122"/>
            <polygon id="Fill-7" fill="#FEFEFE" points="227.574811 96.2427097 227.574811 96.2427097 227.574811 122 210 122 210 60 226.680705 60 235.764533 83.9638918 235.915769 60 252 60 251.702368 122 236.062165 122"/>
            <g id="Group-32">
                <path d="M198.005726,45.6417966 C197.843776,45.8691672 197.637989,46.0175053 197.385931,46.0855949 C196.98897,46.2083993 196.153647,46.2704095 194.899445,46.2704095 L193.981321,46.2704095 L193.981321,43.5699273 L195.48271,43.5699273 C197.072989,43.5699273 197.639207,43.7900026 197.834034,43.9736014 C198.121405,44.2459598 198.260219,44.5572265 198.260219,44.9292876 C198.260219,45.1761124 198.178635,45.4083465 198.005726,45.6417966 M198.703452,48.6182848 C198.380769,48.1708389 198.127493,47.8632198 197.948495,47.7039388 C197.885176,47.648008 197.810898,47.5920773 197.724444,47.5337148 C198.266308,47.3890244 198.699799,47.1762444 199.037094,46.8905112 C199.681242,46.3384991 200.007578,45.6417966 200.007578,44.8198578 C200.007578,44.0441228 199.693419,43.3838968 199.073624,42.8562024 C198.457482,42.3406669 197.491868,42.0901944 196.12077,42.0901944 L192.282669,42.0901944 L192.282669,51.7953942 L193.981321,51.7953942 L193.981321,47.8109367 L194.490308,47.8109367 C195.255005,47.8109367 195.799305,47.914287 196.107376,48.116124 C196.332645,48.2644621 196.772224,48.7374416 197.594153,50.1563803 L198.559767,51.7953942 L200.60789,51.7953942 L199.457191,49.7490586 C199.280628,49.4365759 199.027352,49.0560037 198.703452,48.6182848" id="Fill-8" fill="#FEFEFE"/>
                <path d="M203.076111,47.2465226 C203.076111,49.2624611 202.350379,51.0096889 200.919614,52.4383546 C199.494938,53.8670203 197.740273,54.5916882 195.707979,54.5916882 C193.680556,54.5916882 191.931979,53.8670203 190.509739,52.4383546 C189.075321,51.0072571 188.348371,49.2612452 188.348371,47.2465226 C188.348371,45.2257205 189.075321,43.4772768 190.509739,42.0510429 C191.938068,40.6162977 193.685426,39.8891981 195.707979,39.8891981 C197.734185,39.8891981 199.48885,40.6162977 200.919614,42.0510429 C202.350379,43.4748451 203.076111,45.2232887 203.076111,47.2465226 M201.949765,41.01754 C200.246242,39.3067888 198.149411,38.4386464 195.721374,38.4386464 C193.296989,38.4386464 191.196505,39.3067888 189.478371,41.01754 C187.765106,42.7282912 186.896906,44.8244782 186.896906,47.2465226 C186.896906,49.667351 187.765106,51.7598904 189.478371,53.4669939 C191.197723,55.1838246 193.298207,56.0543987 195.721374,56.0543987 C198.148193,56.0543987 200.245024,55.1838246 201.949765,53.4669939 C203.663029,51.7611062 204.532446,49.667351 204.532446,47.2465226 C204.532446,44.8244782 203.663029,42.7282912 201.949765,41.01754" id="Fill-10" fill="#FEFEFE"/>
                <path d="M17.1759907,152.99028 C17.1759907,156.842206 16.2042886,159.632664 11.7390863,159.632664 C8.12381888,159.632664 6.66626579,157.26655 6.66626579,154.688872 L6.66626579,152.899088 L9.21728812,152.899088 L9.21728812,154.476092 C9.21728812,156.265876 9.88578991,157.448933 11.7086445,157.448933 C14.1391174,157.448933 14.5032012,155.90111 14.5032012,152.899088 L14.5032012,137.549747 L17.1759907,137.549747 L17.1759907,152.99028 Z" id="Fill-12" fill="#FEFEFE"/>
                <path d="M23.1890974,148.379641 C23.1890974,153.384227 23.6749484,157.448933 27.3815412,157.448933 C31.0869164,157.448933 31.5727674,153.384227 31.5727674,148.379641 C31.5727674,143.37384 31.0869164,139.31035 27.3815412,139.31035 C23.6749484,139.31035 23.1890974,143.37384 23.1890974,148.379641 M34.3673241,148.379641 C34.3673241,153.838968 33.3651802,159.632664 27.3815412,159.632664 C21.3966845,159.632664 20.3945407,153.838968 20.3945407,148.379641 C20.3945407,142.919098 21.3966845,137.125403 27.3815412,137.125403 C33.3651802,137.125403 34.3673241,142.919098 34.3673241,148.379641" id="Fill-14" fill="#FEFEFE"/>
                <mask id="mask-2" fill="white">
                    <use xlink:href="#path-1"/>
                </mask>
                <g id="Clip-17"/>
                <polygon id="Fill-16" fill="#FEFEFE" mask="url(#mask-2)" points="37.5858741 159.20686 40.2586636 159.20686 40.2586636 137.549504 37.5858741 137.549504"/>
                <polygon id="Fill-18" fill="#FEFEFE" mask="url(#mask-2)" points="43.781388 137.550112 47.2444464 137.550112 54.4128801 155.629117 54.4737636 155.629117 54.4737636 137.550112 57.1465531 137.550112 57.1465531 159.207468 53.4716198 159.207468 46.515061 141.675612 46.4541775 141.675612 46.4541775 159.207468 43.781388 159.207468"/>
                <polygon id="Fill-19" fill="#FEFEFE" mask="url(#mask-2)" points="73.4252415 159.207955 70.752452 159.207955 70.752452 139.916712 65.31433 139.916712 65.31433 137.550598 78.8925877 137.550598 78.8925877 139.916712 73.4252415 139.916712"/>
                <polygon id="Fill-20" fill="#FEFEFE" mask="url(#mask-2)" points="93.6846207 159.207955 91.0118312 159.207955 91.0118312 148.773223 83.5694214 148.773223 83.5694214 159.207955 80.8966319 159.207955 80.8966319 137.550598 83.5694214 137.550598 83.5694214 146.408326 91.0118312 146.408326 91.0118312 137.550598 93.6846207 137.550598"/>
                <polygon id="Fill-21" fill="#FEFEFE" mask="url(#mask-2)" points="97.2057621 137.550112 108.414431 137.550112 108.414431 139.917441 99.8785516 139.917441 99.8785516 146.710595 107.92858 146.710595 107.92858 149.077924 99.8785516 149.077924 99.8785516 156.842571 108.779732 156.842571 108.779732 159.207468 97.2057621 159.207468"/>
                <polygon id="Fill-22" fill="#FEFEFE" mask="url(#mask-2)" points="118.557393 159.20686 121.230182 159.20686 121.230182 137.549504 118.557393 137.549504"/>
                <polygon id="Fill-23" fill="#FEFEFE" mask="url(#mask-2)" points="124.752785 137.550112 128.214626 137.550112 135.384277 155.629117 135.445161 155.629117 135.445161 137.550112 138.11795 137.550112 138.11795 159.207468 134.443017 159.207468 127.486458 141.675612 127.425574 141.675612 127.425574 159.207468 124.752785 159.207468"/>
                <polygon id="Fill-24" fill="#FEFEFE" mask="url(#mask-2)" points="141.638726 137.550112 145.101785 137.550112 152.271436 155.629117 152.33232 155.629117 152.33232 137.550112 155.005109 137.550112 155.005109 159.207468 151.328958 159.207468 144.372399 141.675612 144.311516 141.675612 144.311516 159.207468 141.638726 159.207468"/>
                <path d="M161.016633,148.379641 C161.016633,153.384227 161.503701,157.448933 165.209077,157.448933 C168.914452,157.448933 169.400303,153.384227 169.400303,148.379641 C169.400303,143.37384 168.914452,139.31035 165.209077,139.31035 C161.503701,139.31035 161.016633,143.37384 161.016633,148.379641 M172.196077,148.379641 C172.196077,153.838968 171.193933,159.632664 165.209077,159.632664 C159.22422,159.632664 158.223294,153.838968 158.223294,148.379641 C158.223294,142.919098 159.22422,137.125403 165.209077,137.125403 C171.193933,137.125403 172.196077,142.919098 172.196077,148.379641" id="Fill-25" fill="#FEFEFE" mask="url(#mask-2)"/>
                <polygon id="Fill-26" fill="#FEFEFE" mask="url(#mask-2)" points="173.590798 137.550112 176.385355 137.550112 180.638682 156.144652 180.699566 156.144652 184.952893 137.550112 187.746233 137.550112 182.278886 159.207468 178.876711 159.207468"/>
                <path d="M191.268105,151.079394 L197.100752,151.079394 L194.33542,140.614265 L194.274536,140.614265 L191.268105,151.079394 Z M192.574666,137.550233 L196.158274,137.550233 L201.990922,159.20759 L199.196365,159.20759 L197.647487,153.263125 L190.72137,153.263125 L189.11039,159.20759 L186.315833,159.20759 L192.574666,137.550233 Z" id="Fill-27" fill="#FEFEFE" mask="url(#mask-2)"/>
                <polygon id="Fill-28" fill="#FEFEFE" mask="url(#mask-2)" points="208.429118 159.207955 205.756328 159.207955 205.756328 139.916712 200.319424 139.916712 200.319424 137.550598 213.897682 137.550598 213.897682 139.916712 208.429118 139.916712"/>
                <polygon id="Fill-29" fill="#FEFEFE" mask="url(#mask-2)" points="215.900508 159.20686 218.573298 159.20686 218.573298 137.549504 215.900508 137.549504"/>
                <path d="M224.587135,148.379641 C224.587135,153.384227 225.074204,157.448933 228.779579,157.448933 C232.484954,157.448933 232.970805,153.384227 232.970805,148.379641 C232.970805,143.37384 232.484954,139.31035 228.779579,139.31035 C225.074204,139.31035 224.587135,143.37384 224.587135,148.379641 M235.766579,148.379641 C235.766579,153.838968 234.764436,159.632664 228.779579,159.632664 C222.794722,159.632664 221.793796,153.838968 221.793796,148.379641 C221.793796,142.919098 222.794722,137.125403 228.779579,137.125403 C234.764436,137.125403 235.766579,142.919098 235.766579,148.379641" id="Fill-30" fill="#FEFEFE" mask="url(#mask-2)"/>
                <polygon id="Fill-31" fill="#FEFEFE" mask="url(#mask-2)" points="238.983668 137.550112 242.446727 137.550112 249.616378 155.629117 249.677262 155.629117 249.677262 137.550112 252.350051 137.550112 252.350051 159.207468 248.6739 159.207468 241.717341 141.675612 241.656458 141.675612 241.656458 159.207468 238.983668 159.207468"/>
            </g>
        </g>
    </g>
</svg>